<?xml version="1.0" standalone="no"?>
<!DOCTYPE svg PUBLIC "-//W3C//DTD SVG 20010904//EN"
 "http://www.w3.org/TR/2001/REC-SVG-20010904/DTD/svg10.dtd">
<svg version="1.0" xmlns="http://www.w3.org/2000/svg"
 width="1350.000000pt" height="579.000000pt" viewBox="0 0 1350.000000 579.000000"
 preserveAspectRatio="xMidYMid meet">
<metadata>
Created by potrace 1.10, written by Peter Selinger 2001-2011
</metadata>
<g transform="translate(0.000000,579.000000) scale(0.100000,-0.100000)"
fill="#ffffff" stroke="none">
<path d="M4483 5039 c-48 -24 -110 -95 -124 -141 -12 -43 -12 -593 0 -636 11
-37 70 -112 109 -139 26 -17 65 -18 717 -18 670 0 691 -1 730 -20 29 -14 47
-33 64 -68 21 -43 22 -52 12 -93 -17 -67 -36 -90 -99 -121 l-57 -28 -660 -5
c-600 -5 -663 -7 -691 -22 -44 -24 -91 -73 -115 -119 -19 -39 -20 -57 -17
-872 3 -910 -1 -844 66 -919 68 -75 53 -73 477 -76 209 -2 403 -1 432 3 73 9
140 56 175 125 l28 52 0 440 0 439 25 24 c24 25 25 25 222 25 267 1 414 13
554 49 264 66 460 191 624 396 143 177 212 371 220 615 17 479 -294 915 -747
1051 -231 69 -382 79 -1203 79 -688 0 -701 0 -742 -21z m1642 -118 c50 -6 108
-16 130 -22 22 -6 60 -14 85 -19 45 -8 90 -22 145 -45 17 -7 37 -16 45 -19 15
-6 25 -11 65 -34 11 -7 27 -15 35 -19 8 -4 20 -11 25 -15 6 -4 33 -25 60 -46
50 -38 175 -172 175 -188 0 -4 7 -15 15 -24 20 -22 105 -195 105 -214 0 -8 6
-30 14 -48 17 -41 36 -181 36 -271 0 -111 -29 -266 -66 -352 -7 -16 -15 -37
-18 -45 -3 -8 -10 -22 -15 -30 -5 -8 -12 -22 -16 -30 -20 -50 -92 -143 -162
-211 -71 -68 -154 -124 -253 -171 -120 -57 -149 -68 -176 -68 -14 0 -35 -5
-47 -12 -48 -25 -217 -39 -542 -44 -181 -2 -334 -4 -340 -4 -7 0 -9 -189 -7
-555 l3 -555 -476 2 -476 3 -2 883 -2 882 686 0 c739 0 720 -1 837 52 147 68
190 300 79 433 -72 86 -151 104 -450 105 -120 1 -237 -1 -260 -4 -23 -3 -233
-8 -467 -11 l-425 -6 0 361 0 361 785 -5 c501 -2 818 -8 875 -15z"/>
<path d="M7392 5039 c-45 -23 -104 -86 -121 -132 -15 -38 -15 -2134 -1 -2226
44 -284 117 -439 283 -603 156 -156 378 -265 648 -319 152 -30 207 -34 479
-33 255 0 304 6 500 61 259 73 478 216 611 401 115 162 163 300 199 577 14
106 13 2086 -1 2137 -13 49 -95 131 -147 146 -47 14 -597 16 -656 3 -39 -10
-97 -58 -139 -116 l-22 -30 -5 -1025 -5 -1025 -22 -42 c-41 -76 -118 -116
-243 -128 -110 -10 -182 11 -236 68 -30 31 -44 57 -52 93 -7 31 -13 406 -17
1044 -4 600 -11 1008 -16 1027 -13 42 -108 128 -150 137 -17 3 -214 6 -438 6
-393 0 -407 -1 -449 -21z m2493 -102 c4 -18 -14 -2189 -19 -2232 -6 -59 -27
-151 -48 -210 -6 -16 -13 -42 -15 -57 -3 -15 -11 -33 -19 -39 -8 -6 -14 -20
-14 -30 0 -10 -4 -20 -9 -23 -5 -3 -19 -25 -31 -48 -22 -42 -40 -64 -119 -144
-67 -68 -183 -142 -316 -199 -91 -39 -107 -45 -126 -45 -11 0 -30 -5 -42 -12
-12 -7 -44 -15 -72 -19 -27 -4 -70 -12 -95 -18 -61 -14 -583 -14 -635 0 -22 6
-65 14 -95 18 -59 8 -142 28 -175 42 -35 15 -109 40 -132 46 -12 3 -28 11 -34
19 -6 8 -20 14 -30 14 -10 0 -21 5 -24 11 -4 5 -17 15 -28 20 -122 56 -253
187 -317 319 -60 124 -75 170 -90 280 -5 36 -12 75 -15 86 -2 12 -6 517 -7
1123 l-3 1101 478 0 477 0 0 -1047 c0 -940 2 -1053 16 -1098 9 -27 20 -57 25
-65 5 -8 13 -25 18 -36 10 -23 77 -79 126 -105 33 -18 218 -44 236 -34 6 4 38
9 72 12 34 3 73 11 87 18 14 7 32 16 40 20 78 32 141 101 172 189 17 48 18
113 18 1094 0 574 1 1046 4 1050 3 6 739 5 741 -1z"/>
<path d="M10393 5040 c-49 -25 -110 -96 -124 -142 -12 -44 -12 -540 1 -573 14
-37 75 -108 113 -131 31 -18 64 -19 732 -25 462 -4 713 -9 739 -17 80 -22 119
-72 120 -153 1 -58 -34 -107 -101 -140 -46 -22 -63 -23 -338 -30 -159 -4 -468
-8 -686 -8 -218 -1 -411 -4 -428 -7 -39 -8 -127 -92 -147 -140 -12 -28 -14
-177 -14 -881 0 -800 1 -850 19 -888 21 -48 98 -121 138 -132 35 -10 829 -11
863 -1 14 4 44 26 68 48 83 80 76 37 82 576 5 522 5 514 60 514 45 0 73 -48
145 -250 14 -41 35 -95 45 -120 26 -61 65 -165 107 -279 131 -358 123 -342
186 -408 88 -93 54 -88 544 -91 451 -3 521 1 573 38 38 27 90 107 90 139 0 14
-7 39 -15 55 -8 15 -15 34 -15 41 0 15 -187 478 -280 695 -47 109 -120 288
-140 344 -25 69 -13 96 64 148 33 23 102 83 152 133 106 108 166 212 207 365
139 511 -58 973 -513 1205 -81 41 -226 88 -345 111 -81 16 -179 18 -975 21
-883 4 -885 4 -927 -17z m1867 -123 c105 -17 168 -33 217 -53 17 -8 35 -14 39
-14 8 0 133 -61 169 -83 44 -27 132 -97 165 -132 19 -20 43 -44 53 -53 9 -9
17 -20 17 -25 0 -5 12 -26 28 -46 39 -52 71 -119 99 -211 12 -38 34 -222 33
-270 -3 -83 -19 -221 -28 -243 -7 -16 -12 -39 -12 -52 0 -13 -6 -36 -14 -52
-8 -15 -29 -57 -46 -93 -30 -60 -72 -122 -110 -160 -28 -28 -138 -110 -149
-110 -5 0 -14 -6 -18 -12 -8 -13 -23 -21 -125 -68 l-47 -21 18 -40 c10 -22 24
-46 30 -52 6 -6 11 -21 11 -33 0 -12 7 -27 15 -34 8 -7 15 -21 15 -30 0 -10 6
-31 14 -47 8 -15 21 -45 30 -65 9 -21 23 -55 32 -75 9 -21 22 -51 30 -66 8
-16 14 -36 14 -45 0 -9 7 -26 15 -36 8 -11 15 -27 15 -37 0 -9 7 -22 15 -29 8
-7 15 -21 15 -30 0 -10 6 -31 14 -47 7 -15 21 -46 31 -68 9 -22 23 -53 31 -68
8 -16 14 -35 14 -42 0 -7 6 -26 14 -42 7 -15 21 -46 31 -68 9 -22 23 -53 31
-68 8 -16 14 -33 14 -38 0 -10 44 -109 91 -204 16 -33 29 -63 29 -67 0 -5
-235 -8 -523 -8 l-523 0 -22 62 c-43 125 -54 153 -63 162 -5 6 -9 18 -9 28 0
17 -18 65 -46 121 -8 16 -14 35 -14 44 0 8 -6 27 -14 41 -24 48 -46 102 -46
117 0 7 -6 26 -14 42 -26 52 -46 104 -46 118 0 7 -6 26 -14 42 -8 15 -21 46
-29 68 -35 95 -49 132 -63 158 -8 16 -14 36 -14 46 0 9 -7 26 -15 37 -8 10
-15 31 -15 46 0 15 -5 30 -11 34 -13 7 -298 11 -307 4 -7 -5 0 -1116 7 -1135
12 -35 10 -35 -471 -35 l-473 0 0 912 0 913 734 1 c667 2 737 3 775 19 136 56
160 75 200 155 24 48 27 63 24 130 -3 41 -11 91 -19 110 -37 91 -143 160 -245
160 -33 0 -64 4 -69 8 -6 5 -318 6 -695 3 -377 -3 -689 -5 -695 -3 -6 1 -10
119 -10 327 l0 326 895 -4 c746 -4 911 -7 990 -20z"/>
<path d="M409 4986 c-46 -16 -124 -99 -145 -154 -15 -39 -16 -83 -6 -505 14
-597 15 -1681 1 -1860 -17 -217 -5 -241 253 -491 315 -305 433 -412 479 -437
14 -8 56 -48 93 -89 37 -41 84 -89 104 -107 21 -18 75 -70 122 -116 47 -45 97
-91 113 -100 15 -10 27 -23 27 -31 0 -7 11 -18 24 -24 14 -6 35 -25 47 -41 13
-17 28 -31 33 -31 6 0 22 -16 36 -35 14 -19 44 -48 68 -65 23 -17 42 -37 42
-43 0 -17 67 -70 115 -93 22 -10 55 -29 74 -41 25 -17 43 -22 65 -17 17 3 44
0 60 -6 23 -8 32 -8 46 5 9 8 20 15 25 15 10 0 102 69 142 106 15 15 58 51 95
81 38 31 68 61 68 68 0 13 42 45 58 45 5 0 32 21 59 48 47 44 114 105 264 238
36 33 86 75 112 94 25 19 51 47 56 63 6 17 17 27 29 27 11 0 27 11 36 25 10
14 28 30 42 35 13 5 29 21 34 35 6 15 17 25 29 25 11 0 30 13 43 29 13 15 29
30 35 32 21 8 93 79 91 90 -2 6 11 16 29 22 17 7 59 38 93 69 33 32 65 58 71
58 5 0 29 19 53 42 24 24 67 64 94 91 28 26 66 68 84 95 l33 47 -2 937 c-2
812 -5 943 -18 974 -16 39 -20 94 -7 94 4 0 9 42 11 93 1 50 5 112 8 137 12
102 14 342 3 394 -10 47 -19 62 -70 110 -85 79 -141 85 -251 28 -118 -62 -244
-137 -289 -172 -19 -15 -44 -30 -55 -34 -11 -3 -67 -35 -125 -71 -58 -35 -141
-86 -185 -113 -44 -27 -120 -76 -169 -108 -48 -32 -103 -68 -120 -78 -18 -11
-37 -29 -42 -40 -5 -12 -24 -24 -47 -29 -20 -5 -42 -18 -48 -28 -5 -10 -16
-19 -24 -19 -8 0 -32 -16 -54 -35 -21 -19 -43 -35 -50 -35 -6 0 -33 -13 -59
-30 -79 -48 -138 -41 -226 29 -21 17 -61 42 -90 56 -59 30 -112 65 -141 93
-11 11 -42 31 -70 45 -27 15 -72 40 -100 56 -27 17 -66 39 -85 49 -19 10 -96
54 -170 97 -384 222 -630 361 -675 381 -64 28 -131 36 -176 20z m93 -106 c13
-6 37 -19 53 -30 17 -11 39 -24 50 -30 11 -6 34 -19 50 -30 17 -11 44 -26 60
-34 17 -8 53 -29 80 -45 28 -17 59 -35 70 -41 11 -6 36 -20 55 -31 19 -12 55
-32 80 -46 25 -13 59 -33 75 -44 17 -10 39 -23 50 -29 11 -5 47 -26 80 -45 33
-19 69 -39 80 -45 11 -6 43 -24 70 -41 28 -16 64 -37 80 -45 17 -8 44 -23 60
-34 34 -21 95 -55 175 -96 30 -16 61 -35 68 -41 7 -7 18 -13 24 -13 6 0 19 -7
28 -15 35 -31 236 -135 262 -135 21 0 86 29 133 60 17 11 39 24 50 30 11 6 34
19 50 30 17 11 39 24 50 30 23 12 52 30 127 81 29 20 71 47 93 59 22 12 54 30
70 41 17 10 39 23 50 29 11 6 34 19 50 30 17 11 39 24 50 30 11 6 34 19 50 30
17 11 39 24 50 30 11 6 32 18 47 28 15 9 59 37 99 62 39 25 83 53 98 62 14 10
35 22 46 28 11 6 34 19 50 30 17 11 39 24 50 30 11 6 34 19 50 30 17 11 39 24
50 30 24 13 46 27 102 63 54 34 101 36 132 3 l22 -23 0 -1324 -1 -1324 -27
-23 c-16 -13 -53 -47 -83 -76 -30 -28 -84 -76 -120 -106 -97 -82 -332 -292
-391 -349 -23 -23 -118 -107 -183 -164 -19 -17 -118 -106 -187 -168 -14 -13
-55 -49 -90 -79 -35 -30 -91 -80 -124 -111 -33 -31 -96 -87 -140 -125 -44 -38
-100 -87 -123 -108 -136 -126 -147 -133 -195 -116 -16 5 -51 31 -76 57 -25 27
-170 167 -321 313 -151 146 -342 331 -425 411 -82 80 -215 209 -294 285 -78
76 -180 175 -226 219 -45 44 -118 114 -161 155 l-79 75 0 1283 0 1284 28 24
c30 26 62 30 99 14z"/>
<path d="M3490 4470 c-8 -5 -31 -10 -50 -10 -19 0 -48 -7 -64 -15 -15 -8 -38
-15 -50 -15 -11 0 -41 -6 -66 -14 -66 -21 -129 -36 -180 -45 -25 -4 -55 -13
-67 -19 -12 -7 -34 -12 -50 -12 -15 0 -41 -7 -57 -15 -15 -8 -38 -15 -49 -15
-21 0 -121 -30 -187 -56 -19 -7 -46 -15 -59 -16 -43 -5 -35 -26 12 -33 55 -8
173 10 293 46 17 5 42 9 56 9 14 0 42 7 61 15 20 8 48 15 61 15 14 0 40 6 58
14 30 13 73 23 183 45 22 4 49 12 60 19 11 6 48 23 82 37 34 15 72 38 84 51
l22 24 -39 0 c-21 0 -46 -5 -54 -10z"/>
<path d="M420 4355 c0 -10 38 -41 88 -71 31 -18 72 -30 145 -40 56 -9 110 -20
120 -25 10 -6 60 -14 110 -19 51 -5 112 -14 137 -20 40 -9 139 -25 225 -36 17
-2 77 -13 135 -24 69 -13 123 -18 157 -15 29 4 60 2 70 -3 10 -5 26 -7 35 -3
14 5 15 9 3 25 -13 18 -55 30 -190 56 -33 6 -88 18 -122 26 -34 8 -74 14 -90
14 -15 0 -50 7 -77 15 -27 8 -68 15 -90 15 -23 0 -59 7 -81 15 -22 8 -59 14
-81 15 -23 0 -61 7 -84 15 -23 8 -62 15 -86 15 -23 0 -55 5 -69 10 -15 6 -61
15 -103 20 -42 6 -94 13 -114 16 -21 4 -38 3 -38 -1z"/>
<path d="M3425 4230 c-33 -21 -65 -39 -72 -39 -6 -1 -18 -7 -25 -14 -15 -14
-143 -77 -157 -77 -6 0 -14 -6 -18 -13 -4 -8 -17 -19 -28 -26 -17 -10 -14 -11
20 -7 22 3 103 10 180 17 141 11 185 20 185 38 0 6 -15 14 -32 19 -21 6 -32
14 -29 23 2 8 5 23 6 33 1 11 8 22 16 25 19 8 59 44 59 53 0 19 -50 4 -105
-32z"/>
<path d="M2880 4034 c-74 -7 -220 -18 -325 -24 -124 -7 -210 -16 -247 -28 -32
-9 -58 -19 -58 -22 0 -5 16 -5 318 6 183 6 202 6 202 -9 0 -18 -94 -97 -114
-97 -13 0 -86 -63 -86 -74 0 -21 73 8 180 73 19 11 46 26 60 32 13 5 27 13 30
17 3 4 54 32 114 62 166 84 162 87 -74 64z"/>
<path d="M1488 3939 c-64 -4 -120 -9 -125 -12 -5 -3 -90 -8 -188 -12 -99 -3
-209 -10 -245 -15 -36 -5 -142 -12 -237 -16 -94 -4 -177 -10 -184 -14 -6 -5
-10 -14 -7 -21 6 -15 136 -18 208 -6 39 7 218 16 443 22 82 3 153 7 158 11 5
3 58 9 117 14 357 28 416 35 407 49 -6 10 -161 10 -347 0z"/>
<path d="M1925 3825 c-5 -1 -44 -8 -85 -14 -232 -36 -449 -144 -612 -304 -76
-74 -147 -157 -161 -186 -4 -9 -16 -29 -27 -46 -10 -16 -29 -50 -41 -75 -12
-25 -25 -52 -30 -60 -5 -8 -11 -19 -13 -25 -1 -5 -8 -26 -15 -45 -59 -168 -74
-325 -51 -535 13 -124 38 -205 110 -355 74 -155 262 -360 412 -449 62 -37 174
-91 189 -91 8 0 23 -6 34 -14 11 -7 36 -16 55 -18 19 -3 49 -10 65 -16 61 -22
263 -36 337 -24 37 7 87 12 111 12 23 1 53 7 67 15 14 8 36 14 50 15 14 0 38
7 54 15 15 8 33 15 39 15 11 0 133 59 172 83 48 30 183 134 215 166 47 48 130
146 130 155 0 4 19 37 43 74 23 37 50 84 60 105 36 78 46 103 50 127 3 14 10
39 15 55 20 57 42 210 42 294 0 80 -21 224 -42 286 -5 17 -14 44 -18 60 -15
54 -36 105 -48 117 -7 7 -12 20 -12 29 0 9 -7 22 -15 29 -8 7 -15 21 -15 31 0
10 -4 20 -9 23 -5 3 -26 32 -47 63 -20 32 -44 65 -53 74 -9 9 -32 34 -52 55
-61 66 -111 108 -189 160 -126 83 -183 114 -210 114 -9 0 -25 7 -36 15 -10 8
-29 15 -41 15 -12 0 -37 6 -55 14 -64 27 -325 56 -373 41z m335 -100 c50 -15
88 -29 160 -57 38 -15 114 -52 120 -59 3 -3 23 -16 45 -29 54 -33 86 -61 181
-157 45 -45 89 -98 98 -118 9 -19 20 -35 24 -35 8 0 12 -8 50 -87 13 -26 30
-61 37 -76 8 -16 15 -41 15 -57 0 -16 7 -30 15 -34 16 -6 22 -86 6 -86 -12 0
-21 25 -21 57 0 13 -7 31 -15 39 -8 9 -15 26 -15 38 0 13 -7 29 -15 36 -8 7
-15 21 -15 31 0 10 -5 21 -11 24 -5 4 -14 17 -20 28 -38 88 -189 257 -294 330
-60 42 -71 48 -149 88 -22 12 -48 25 -56 30 -17 10 -19 11 -72 28 -111 36
-395 53 -498 31 -64 -14 -188 -50 -210 -60 -8 -5 -26 -13 -40 -19 -141 -61
-317 -212 -407 -349 -171 -259 -221 -542 -147 -827 53 -200 160 -372 330 -526
35 -31 153 -113 177 -122 9 -3 17 -11 17 -17 0 -5 11 -10 24 -10 13 0 29 -7
36 -15 7 -8 23 -15 35 -15 30 0 55 -10 55 -21 0 -16 -70 -10 -76 6 -4 9 -19
15 -35 15 -17 0 -32 6 -35 15 -4 8 -14 15 -24 15 -17 0 -67 23 -94 43 -199
144 -286 243 -383 437 -23 47 -43 91 -43 98 0 8 -6 28 -14 45 -61 139 -59 462
4 647 71 207 222 411 395 532 54 37 202 118 218 118 5 0 23 7 40 15 34 15 94
32 167 45 79 15 378 5 440 -15z m-262 -78 c12 -14 3 -68 -18 -107 -10 -19 -13
-75 -12 -220 2 -187 -7 -262 -24 -194 -4 16 -13 38 -20 49 -8 11 -14 31 -14
46 0 15 -7 32 -15 39 -8 7 -15 23 -15 36 0 33 -31 144 -41 144 -4 0 -10 17
-14 38 -4 20 -13 44 -20 52 -7 8 -15 25 -17 38 -1 12 -7 24 -13 25 -15 3 -18
-62 -4 -79 13 -16 28 -74 36 -141 3 -29 10 -43 24 -46 12 -3 19 -14 19 -30 0
-14 7 -38 15 -53 8 -16 15 -41 15 -56 0 -15 5 -30 10 -33 6 -3 10 -24 10 -45
0 -30 5 -40 20 -45 13 -4 20 -15 20 -32 0 -15 6 -34 13 -42 8 -10 11 -31 7
-56 l-5 -40 -37 46 c-21 25 -38 51 -38 58 0 6 -7 14 -15 17 -20 8 -19 23 2 46
15 17 15 18 -5 18 -14 0 -36 18 -62 53 -22 28 -52 65 -65 82 -14 16 -25 40
-25 52 0 13 -4 23 -9 23 -4 0 -21 19 -37 43 -16 23 -35 46 -41 50 -7 4 -13 12
-13 18 0 10 -10 24 -42 60 -10 10 -18 24 -18 29 0 6 -7 10 -15 10 -8 0 -15 -4
-15 -9 0 -11 32 -73 41 -81 3 -3 28 -43 55 -89 26 -46 54 -85 61 -88 7 -3 19
-17 26 -31 8 -15 28 -52 44 -83 16 -31 43 -69 60 -83 18 -15 35 -36 39 -48 7
-23 19 -40 47 -66 9 -9 17 -20 17 -25 0 -5 14 -26 30 -47 17 -21 30 -43 30
-49 0 -16 -58 -43 -74 -34 -27 16 -72 60 -100 97 -16 21 -51 62 -78 90 -61 63
-61 76 -4 76 47 0 60 8 47 28 -9 14 -91 6 -91 -9 0 -5 -3 -9 -8 -9 -12 0 -107
81 -112 97 -9 22 -192 203 -206 203 -22 0 -4 -36 44 -88 88 -94 94 -103 81
-119 -11 -12 -8 -13 13 -8 21 5 31 0 57 -32 42 -50 41 -73 -2 -73 -18 0 -38
-5 -43 -10 -14 -14 -81 14 -118 51 -17 16 -34 29 -40 29 -17 0 -86 34 -86 42
0 4 -10 8 -23 8 -12 0 -30 9 -40 20 -16 19 -15 23 25 83 55 83 78 107 100 107
10 0 18 6 18 14 0 28 122 136 153 136 9 0 26 10 39 23 28 28 102 67 127 67 10
0 24 7 31 15 7 8 29 15 49 15 20 0 43 6 49 13 12 11 83 22 173 25 20 1 41 -4
47 -11z m230 -10 c17 -13 15 -24 -9 -48 -15 -15 -20 -29 -15 -49 3 -18 0 -33
-9 -40 -8 -7 -15 -24 -15 -39 0 -15 -6 -35 -14 -46 -7 -11 -16 -37 -20 -57 -4
-20 -13 -50 -21 -65 -8 -15 -15 -39 -15 -53 0 -14 -7 -34 -15 -44 -8 -11 -15
-30 -15 -42 0 -12 -6 -27 -14 -33 -9 -8 -12 -25 -9 -55 4 -31 1 -51 -11 -67
-9 -13 -16 -39 -16 -57 0 -55 -24 -32 -34 32 -7 43 -6 67 3 90 7 17 12 36 11
41 0 6 -4 76 -6 156 -6 144 -6 146 19 175 17 21 23 34 17 45 -11 19 -21 146
-13 165 4 12 22 13 97 8 50 -4 97 -11 104 -17z m114 -33 c52 -20 128 -55 128
-59 0 -10 -31 -74 -37 -77 -5 -1 -35 -56 -68 -121 -82 -160 -81 -159 -100
-169 -9 -6 -14 -17 -11 -26 6 -20 -16 -91 -32 -101 -6 -3 -14 -19 -17 -34 -4
-15 -11 -27 -16 -27 -5 0 -9 -8 -9 -18 0 -10 -7 -27 -15 -38 -8 -10 -15 -29
-15 -40 0 -12 -7 -27 -15 -34 -8 -7 -15 -18 -15 -26 0 -7 -9 -18 -20 -24 -15
-8 -19 -17 -14 -35 4 -18 2 -25 -9 -25 -8 0 -17 9 -20 20 -3 13 -14 20 -28 20
-18 0 -20 3 -11 12 7 7 12 26 12 43 0 17 7 40 15 51 8 10 15 33 15 50 0 17 7
37 15 44 8 7 15 29 15 49 0 49 34 81 87 81 36 0 63 13 63 32 0 11 -43 10 -74
-2 -33 -12 -39 0 -21 44 8 19 15 49 15 66 0 16 4 30 9 30 5 0 12 22 16 50 4
27 11 52 16 56 5 3 9 22 9 42 0 21 6 46 14 57 7 11 16 38 19 60 6 36 28 65 49
65 4 0 27 -7 50 -16z m181 -90 c45 -23 147 -113 147 -129 0 -8 -7 -18 -16 -23
-9 -5 -49 -41 -88 -79 -66 -65 -75 -70 -125 -76 -30 -4 -62 -14 -72 -23 -17
-16 -19 -16 -25 0 -4 9 1 25 10 35 9 10 16 24 16 32 0 8 7 23 15 33 8 11 15
28 15 38 0 10 4 18 10 18 5 0 13 12 16 26 4 14 17 46 30 71 13 24 24 55 24 69
0 29 2 29 43 8z m232 -209 c26 -36 54 -69 63 -74 14 -8 15 -13 5 -29 -10 -18
-9 -21 13 -26 14 -4 27 -14 31 -24 3 -9 19 -46 35 -80 17 -39 26 -71 22 -84
-4 -13 0 -24 12 -32 17 -13 29 -74 38 -188 2 -25 7 -59 10 -75 3 -15 -3 -71
-12 -123 -17 -94 -18 -95 -46 -93 -15 1 -33 9 -40 18 -7 10 -35 17 -81 22 -38
3 -75 10 -82 15 -7 6 -49 12 -93 15 -44 3 -83 10 -86 14 -3 5 -35 9 -72 9 -64
0 -161 25 -182 46 -26 26 10 33 175 38 94 3 184 9 200 15 17 5 81 12 142 14
62 3 118 9 124 12 43 27 -124 44 -251 25 -41 -6 -140 -15 -219 -20 -103 -7
-151 -15 -172 -27 -25 -15 -35 -16 -76 -5 -32 9 -49 10 -57 2 -12 -12 -46 -13
-46 -1 0 5 7 14 15 21 8 7 15 21 15 32 0 19 4 22 53 33 24 5 28 10 26 33 -3
28 34 82 57 82 6 0 17 7 24 15 7 8 21 15 31 15 11 0 19 3 19 8 0 4 38 25 85
47 47 21 85 43 85 47 0 4 9 8 19 8 11 0 26 6 33 13 7 6 36 23 63 36 28 14 52
27 55 30 3 4 16 12 30 19 86 44 102 62 58 62 -20 0 -143 -55 -158 -70 -3 -3
-27 -16 -55 -29 -27 -14 -52 -27 -55 -30 -3 -3 -27 -17 -55 -31 -27 -14 -55
-32 -62 -40 -9 -11 -15 -12 -23 -3 -9 8 -8 16 7 30 28 30 66 74 96 115 49 64
94 91 156 95 55 3 86 17 75 35 -3 5 -25 6 -50 2 -28 -4 -44 -2 -44 4 0 15 34
72 43 72 4 0 7 7 7 15 0 13 25 34 42 35 4 0 28 -29 53 -65z m-288 -141 c2 -6
-22 -38 -54 -70 -31 -33 -68 -75 -80 -94 -39 -57 -114 -130 -134 -130 -23 0
-26 32 -5 49 8 7 17 23 20 36 4 14 10 25 15 25 5 0 12 14 16 30 4 17 11 30 16
30 5 0 9 9 9 21 0 34 49 89 79 89 14 1 37 7 51 15 28 16 62 16 67 -1z m-1266
-41 c15 -17 34 -31 68 -52 19 -12 6 -41 -19 -41 -20 0 -100 -40 -100 -50 0 -3
19 -13 43 -22 47 -20 93 -23 102 -8 3 6 -4 10 -18 10 -37 0 -39 10 -7 42 25
24 35 28 60 23 37 -8 48 -24 27 -40 -14 -10 -7 -13 43 -18 46 -4 68 -12 97
-35 21 -16 48 -32 61 -36 12 -4 22 -12 22 -17 0 -5 9 -9 19 -9 26 0 35 -16 15
-24 -26 -10 -58 -7 -79 8 -11 7 -52 16 -92 19 -40 3 -81 11 -92 16 -11 6 -49
11 -85 11 -56 0 -67 3 -77 21 -10 19 -17 21 -61 16 l-50 -6 6 27 c4 15 11 44
15 65 5 21 14 44 20 50 6 6 11 21 11 32 0 12 3 25 7 28 12 13 49 7 64 -10z
m505 -210 c46 -49 84 -91 84 -95 0 -20 -46 -4 -103 35 -34 24 -69 47 -77 51
-8 4 -24 12 -35 19 -97 59 -100 77 -14 77 l62 0 83 -87z m-521 -27 c11 -7 48
-16 83 -19 34 -3 69 -10 76 -16 7 -6 48 -14 90 -17 42 -4 79 -11 82 -15 3 -5
35 -9 72 -9 41 0 89 -8 122 -19 106 -37 86 -42 -225 -61 -99 -5 -191 -14 -205
-19 -14 -5 -63 -12 -110 -15 -47 -4 -94 -8 -105 -9 -19 -2 -20 4 -20 84 0 71
3 91 19 108 22 25 90 29 121 7z m811 -42 c-3 -8 -10 -14 -16 -14 -11 0 -14 43
-3 54 10 10 26 -23 19 -40z m184 -41 c0 -5 -11 -16 -25 -26 -25 -18 -42 -9
-31 18 5 15 56 21 56 8z m-289 -104 c29 -20 29 -21 12 -49 -17 -29 -41 -42
-95 -54 -16 -4 -28 -11 -28 -16 0 -6 -31 -10 -69 -10 -39 0 -72 -4 -75 -9 -3
-4 -33 -11 -66 -14 -33 -3 -66 -9 -73 -15 -7 -5 -39 -12 -71 -15 -32 -3 -64
-11 -69 -16 -6 -6 -29 -11 -50 -11 -21 0 -53 -6 -70 -14 -18 -8 -52 -19 -76
-23 -58 -11 -66 -32 -14 -35 58 -3 97 2 107 12 6 6 28 10 49 10 21 0 53 6 70
14 18 8 56 17 86 20 29 3 58 9 65 15 6 5 36 12 66 16 30 4 64 14 75 21 11 8
39 14 63 14 29 0 44 5 48 15 7 17 34 21 34 5 0 -5 -6 -10 -14 -10 -8 0 -16 -7
-20 -15 -3 -8 -16 -20 -28 -25 -13 -6 -30 -14 -38 -19 -8 -5 -46 -24 -85 -43
-38 -18 -72 -35 -75 -38 -7 -7 -88 -51 -127 -69 -18 -8 -33 -19 -33 -23 0 -4
-7 -8 -14 -8 -13 0 -61 -28 -136 -80 -59 -41 -66 -38 -106 47 -21 42 -37 91
-37 108 0 16 -6 35 -13 40 -14 12 -47 173 -42 207 3 23 5 23 143 24 77 0 149
5 160 11 11 6 85 13 165 16 89 4 161 12 185 21 62 23 161 21 196 -5z m119 7
c0 -20 -26 -40 -35 -26 -10 16 2 40 20 40 8 0 15 -6 15 -14z m80 -33 c0 -7 -4
-13 -10 -13 -5 0 -10 12 -10 28 0 21 2 24 10 12 5 -8 10 -21 10 -27z m-38 -35
c-7 -7 -12 -18 -12 -26 0 -11 11 -12 50 -7 l51 7 57 -59 c32 -32 96 -100 142
-152 128 -142 325 -341 338 -341 42 0 -32 91 -266 328 -95 96 -172 175 -172
178 0 11 80 2 87 -10 4 -7 26 -23 47 -34 22 -12 42 -25 45 -29 3 -4 33 -26 66
-48 33 -22 62 -42 65 -45 5 -5 50 -36 82 -55 9 -5 51 -31 93 -57 77 -49 105
-58 105 -35 0 16 -58 58 -191 142 -35 21 -70 45 -77 52 -7 7 -20 13 -28 13 -8
0 -14 4 -14 8 0 5 -20 19 -45 31 -25 12 -43 27 -40 32 9 14 58 11 81 -5 11 -8
49 -18 85 -21 35 -4 83 -13 107 -21 23 -8 68 -14 100 -14 55 0 128 -13 139
-23 3 -3 -5 -32 -17 -64 -12 -32 -24 -68 -27 -81 -3 -12 -18 -36 -34 -53 -16
-17 -29 -40 -29 -50 0 -11 -21 -49 -47 -84 -39 -53 -52 -64 -71 -61 -20 3 -23
0 -18 -20 5 -19 -1 -28 -31 -48 -21 -13 -56 -42 -78 -65 -48 -50 -85 -56 -85
-13 0 20 7 33 23 41 21 11 21 11 -6 6 -30 -6 -77 19 -77 41 0 8 -4 14 -10 14
-5 0 -10 6 -10 13 0 12 -9 26 -50 74 -5 7 -10 15 -10 18 0 3 -21 34 -47 69
-27 35 -55 74 -63 86 -18 26 -26 37 -91 125 -28 39 -57 75 -63 80 -6 6 -17 24
-24 40 -32 71 -39 80 -57 80 -18 0 -20 -8 -21 -79 -1 -57 -6 -82 -16 -90 -8
-6 -18 -29 -21 -50 -3 -22 -11 -42 -17 -46 -7 -4 -14 -26 -17 -49 -3 -22 -9
-41 -14 -41 -4 0 -11 -17 -14 -37 -4 -21 -13 -52 -21 -70 -8 -17 -14 -42 -14
-55 0 -12 -7 -32 -15 -42 -8 -11 -15 -32 -15 -47 0 -15 -4 -31 -10 -34 -5 -3
-10 -24 -10 -47 0 -25 -8 -49 -20 -66 -15 -18 -19 -34 -15 -54 6 -27 5 -28
-33 -28 -23 0 -45 6 -52 15 -7 8 -23 15 -35 15 -33 0 -112 37 -119 56 -3 9
-13 14 -21 10 -8 -3 -21 1 -29 9 -8 8 -17 15 -21 15 -14 0 -106 76 -111 92 -3
12 13 35 53 75 66 67 111 116 168 188 53 66 75 93 104 124 13 14 34 42 46 61
33 49 90 110 103 110 17 0 15 -35 -2 -49 -8 -7 -17 -23 -20 -36 -4 -14 -10
-25 -15 -25 -5 0 -12 -13 -16 -30 -4 -16 -10 -30 -15 -30 -5 0 -11 -13 -15
-30 -4 -16 -11 -30 -16 -30 -5 0 -12 -12 -15 -27 -4 -15 -13 -34 -21 -41 -7
-7 -13 -22 -13 -33 0 -10 -4 -19 -10 -19 -5 0 -13 -12 -16 -27 -4 -15 -13 -34
-21 -41 -7 -7 -13 -22 -13 -33 0 -10 -4 -19 -10 -19 -5 0 -10 -5 -10 -11 0
-10 -33 -90 -50 -121 -14 -25 -12 -58 3 -58 7 0 17 9 22 19 6 11 36 70 68 132
31 61 57 118 57 125 0 8 4 14 10 14 5 0 12 11 16 25 3 14 26 64 50 111 24 46
44 91 44 99 0 8 5 15 10 15 6 0 10 8 10 18 0 10 7 27 15 38 8 10 15 27 15 37
0 31 53 97 77 97 23 0 83 30 83 43 0 4 5 7 12 7 9 0 9 -3 0 -12z m186 -25 c2
-8 -6 -13 -22 -13 -26 0 -40 12 -29 24 11 11 46 2 51 -11z m-148 -164 c0 -6
12 -28 28 -48 15 -20 32 -44 37 -53 29 -50 121 -178 128 -178 4 0 7 -6 7 -14
0 -7 13 -29 30 -47 16 -19 30 -37 30 -40 0 -6 24 -37 53 -69 7 -8 21 -31 30
-50 9 -19 30 -44 46 -55 17 -11 31 -25 31 -30 0 -10 -67 -47 -162 -90 -40 -18
-58 -14 -59 13 0 11 -4 7 -10 -9 -13 -34 -61 -49 -169 -52 l-85 -2 2 27 c1 15
8 40 15 55 11 24 21 29 64 34 28 4 60 11 72 18 33 18 47 13 59 -19 15 -40 29
-38 40 8 6 22 15 36 22 34 21 -4 121 27 121 38 0 14 -103 13 -117 -1 -6 -6
-21 -9 -34 -7 -18 2 -25 10 -27 33 -2 17 -8 34 -13 39 -5 6 -9 22 -9 36 0 14
-7 35 -15 46 -8 10 -15 31 -15 46 0 15 -6 33 -14 40 -7 8 -17 30 -21 49 -4 19
-12 40 -17 47 -6 6 -13 26 -17 44 -4 17 -12 33 -19 36 -17 5 -16 -69 3 -104 8
-16 15 -39 15 -51 0 -12 4 -24 9 -27 5 -3 12 -23 16 -43 4 -21 10 -42 15 -48
4 -5 10 -23 14 -40 4 -16 14 -38 23 -47 8 -9 13 -27 11 -40 -2 -17 -11 -24
-38 -29 -19 -3 -48 -11 -63 -18 -42 -16 -70 1 -57 35 6 14 10 108 10 209 0
150 3 186 15 199 8 8 15 26 15 40 0 13 -7 31 -15 40 -16 15 -20 38 -8 49 10
11 23 8 23 -4z m-406 -37 c-10 -11 -44 -47 -74 -82 -30 -34 -65 -74 -78 -89
-58 -65 -69 -79 -107 -126 -22 -27 -43 -51 -47 -53 -5 -2 -8 -9 -8 -16 0 -18
-37 -49 -49 -41 -6 3 -38 42 -71 85 l-60 79 47 21 c27 12 64 30 83 41 19 11
47 25 63 30 15 6 27 15 27 20 0 5 5 9 11 9 6 0 60 29 119 65 59 36 112 65 118
65 5 0 13 8 16 17 5 12 9 14 18 5 9 -9 7 -16 -8 -30z m341 -219 c-5 -126 -9
-245 -9 -265 -1 -54 -28 -75 -103 -83 l-63 -7 0 31 c0 17 9 48 20 68 11 21 20
45 20 54 0 9 7 30 15 45 8 16 15 39 15 50 0 12 7 35 15 50 8 16 15 41 15 56 0
15 5 30 10 33 6 3 10 18 10 33 0 15 7 40 15 56 8 15 15 46 15 67 0 30 4 39 17
39 15 0 15 -19 8 -227z m-30 -385 c3 -13 7 -36 8 -53 l2 -30 -90 3 c-49 2 -94
7 -99 12 -4 4 -3 25 4 45 12 36 13 37 54 33 22 -3 55 -2 71 2 17 4 33 8 37 9
4 0 10 -9 13 -21z m-216 -114 c17 -4 31 -11 31 -16 0 -14 -93 -5 -98 10 -4 13
18 15 67 6z"/>
<path d="M1750 3310 c0 -5 6 -10 14 -10 8 0 18 5 21 10 3 6 -3 10 -14 10 -12
0 -21 -4 -21 -10z"/>
<path d="M1603 3233 c-20 -7 -15 -23 7 -23 11 0 20 4 20 9 0 13 -12 19 -27 14z"/>
<path d="M1390 3100 c0 -5 7 -10 15 -10 8 0 15 5 15 10 0 6 -7 10 -15 10 -8 0
-15 -4 -15 -10z"/>
<path d="M2115 3520 c-3 -5 1 -10 9 -10 8 0 18 5 21 10 3 6 -1 10 -9 10 -8 0
-18 -4 -21 -10z"/>
<path d="M2060 3490 c0 -5 6 -10 14 -10 8 0 18 5 21 10 3 6 -3 10 -14 10 -12
0 -21 -4 -21 -10z"/>
<path d="M2805 2962 c-11 -2 -24 -8 -29 -13 -6 -5 -24 -9 -40 -9 -17 0 -44 -7
-60 -15 -15 -8 -40 -15 -55 -15 -14 0 -39 -7 -55 -15 -15 -8 -40 -15 -55 -15
-14 0 -38 -6 -53 -14 -14 -8 -46 -17 -70 -21 -24 -4 -49 -12 -56 -18 -8 -6
-32 -13 -55 -16 -22 -3 -42 -12 -45 -18 -5 -16 89 -18 116 -4 9 6 38 13 64 16
26 3 50 10 53 16 4 5 21 9 38 9 18 0 43 6 57 13 15 8 48 17 74 20 27 4 54 11
60 16 6 4 31 11 55 14 24 3 47 10 50 15 3 4 26 13 50 18 25 5 46 14 48 20 4
12 -56 22 -92 16z"/>
<path d="M3375 3423 c-38 -8 -90 -18 -115 -23 -111 -22 -144 -31 -181 -52 -24
-13 -39 -28 -37 -38 4 -22 79 -25 136 -6 25 9 63 16 84 16 21 0 55 7 75 15 19
8 54 15 77 15 22 1 59 9 81 20 22 11 48 19 58 20 26 0 20 16 -10 28 -48 19
-96 20 -168 5z"/>
<path d="M684 2924 c-16 -9 -39 -13 -51 -11 -39 7 -173 -34 -173 -53 0 -12 87
-14 94 -1 3 5 38 12 78 15 93 9 233 55 172 57 -10 0 -35 2 -55 4 -20 2 -49 -3
-65 -11z"/>
<path d="M745 2733 c-16 -3 -38 -11 -49 -19 -11 -8 -26 -14 -33 -14 -21 0
-162 -119 -204 -172 -36 -46 -50 -76 -31 -66 4 3 22 10 40 17 17 7 32 17 32
22 0 5 5 9 12 9 16 0 235 146 272 181 27 26 29 51 3 48 -7 -1 -25 -4 -42 -6z"/>
<path d="M3270 2104 c-25 -7 -60 -14 -79 -14 -19 0 -64 -9 -100 -21 -36 -12
-72 -23 -80 -25 -19 -6 -4 -18 38 -33 24 -8 52 -8 100 0 67 10 89 17 216 63
38 14 71 26 72 26 2 0 3 5 3 10 0 15 -118 11 -170 -6z"/>
<path d="M1180 1721 c-14 -4 -47 -13 -73 -20 -67 -19 -47 -32 55 -38 72 -4 87
-2 117 17 23 15 30 25 23 32 -13 13 -89 19 -122 9z"/>
<path d="M2410 1255 c-7 -8 -17 -15 -22 -15 -5 0 -19 -10 -31 -21 -12 -12 -44
-36 -72 -54 -27 -18 -61 -42 -75 -54 -35 -29 -38 -31 -105 -76 -33 -22 -62
-42 -65 -45 -3 -3 -29 -24 -58 -47 -54 -42 -57 -65 -6 -37 50 26 319 228 399
298 22 20 48 38 58 42 9 3 17 10 17 15 0 14 -26 11 -40 -6z"/>
<path d="M4496 1398 c-54 -7 -92 -33 -138 -90 l-33 -42 -3 -259 c-3 -247 -2
-261 18 -303 25 -51 89 -110 128 -117 62 -12 134 50 182 158 l27 61 67 13 c36
7 72 11 79 8 8 -3 33 -37 56 -76 74 -122 144 -171 253 -179 81 -6 157 15 218
59 52 38 73 37 123 -6 57 -49 99 -57 256 -53 112 3 141 6 163 22 21 13 37 16
60 11 107 -22 121 -20 178 29 30 25 61 46 71 46 9 0 39 -18 67 -41 91 -72 136
-72 216 2 59 54 58 54 140 -15 40 -33 53 -38 94 -38 45 1 49 3 114 73 76 81
63 81 151 1 131 -119 300 -125 430 -13 105 89 157 198 157 329 0 148 -45 257
-142 347 -111 103 -221 112 -415 34 -30 -12 -38 -11 -90 16 -56 28 -61 29
-213 29 -140 0 -160 -3 -208 -24 l-52 -23 -63 22 c-54 18 -87 21 -218 21 -137
0 -157 -2 -184 -20 -38 -25 -52 -25 -106 0 -38 17 -66 20 -193 20 l-149 0 -50
-32 -49 -31 -53 28 -53 29 -40 -18 c-22 -10 -55 -33 -73 -52 -18 -19 -39 -34
-47 -34 -8 0 -39 23 -69 50 -64 58 -86 62 -164 26 l-52 -25 -51 26 c-44 22
-69 27 -172 32 -67 3 -142 3 -168 -1z m2808 -113 c63 -27 107 -79 140 -167 21
-57 18 -211 -5 -270 -53 -133 -212 -205 -325 -148 -49 25 -62 36 -100 85 -36
47 -64 140 -64 211 0 52 29 157 48 176 7 7 12 18 12 24 0 15 76 79 111 93 38
15 143 13 183 -4z m-2495 -30 c75 -68 93 -162 42 -232 -39 -54 -78 -83 -112
-83 -15 0 -31 -5 -35 -11 -5 -8 -30 -9 -79 -5 -53 5 -75 3 -83 -6 -7 -9 -7
-44 0 -111 5 -54 7 -105 4 -113 -4 -10 -22 -14 -60 -14 l-55 0 -3 295 c-2 162
-1 300 1 306 2 7 58 10 175 7 l171 -3 34 -30z m252 -178 c-2 -195 -1 -209 18
-241 19 -31 73 -66 100 -66 6 0 29 11 50 25 28 17 41 34 46 56 4 18 6 123 4
233 l-4 201 44 3 c24 2 47 -1 50 -6 3 -6 4 -117 1 -248 -5 -235 -5 -240 -30
-272 -33 -44 -116 -82 -177 -81 -66 0 -132 29 -168 74 l-30 37 -6 241 c-3 133
-3 246 -1 250 2 4 27 7 55 5 l51 -3 -3 -208z m828 199 c8 -10 9 -25 3 -48 l-9
-33 -130 0 c-72 0 -135 -3 -139 -7 -12 -12 -4 -132 9 -140 7 -4 28 -5 47 -3
19 2 65 7 103 10 l67 6 0 -57 0 -56 -110 3 c-63 2 -113 -1 -118 -6 -4 -6 -6
-43 -4 -84 l4 -73 141 3 142 4 0 -54 0 -55 -192 0 c-165 -1 -193 1 -193 14 0
39 -1 567 0 578 0 19 363 17 379 -2z m440 8 c17 -4 49 -24 71 -46 l40 -40 0
-82 c0 -88 -8 -105 -67 -135 -37 -19 -29 -51 53 -214 26 -54 31 -86 12 -88
-31 -2 -84 4 -98 11 -8 5 -24 34 -34 67 -16 52 -31 95 -57 161 -8 20 -15 22
-83 22 -88 0 -84 8 -74 -134 4 -65 3 -105 -4 -113 -6 -7 -30 -13 -54 -13 l-43
0 -3 293 c-2 160 -1 298 1 305 2 9 42 12 156 12 84 0 167 -3 184 -6z m599 -12
c2 -7 1 -29 -3 -49 l-6 -35 -75 7 -75 7 1 -244 c1 -133 1 -251 0 -260 0 -15
-10 -18 -61 -18 l-60 0 1 248 c1 136 1 253 1 261 -1 10 -16 12 -72 6 -55 -6
-73 -4 -80 6 -9 15 -12 73 -4 81 3 3 100 4 217 4 164 -1 212 -4 216 -14z"/>
<path d="M7150 1198 c-56 -38 -80 -97 -80 -201 0 -102 20 -158 71 -201 58 -49
141 -24 178 54 29 63 30 221 1 284 -35 77 -109 105 -170 64z"/>
<path d="M4544 1189 c-9 -14 -13 -135 -6 -156 3 -9 29 -13 83 -13 73 0 81 2
111 29 40 36 44 89 10 124 -19 18 -36 23 -106 25 -62 3 -86 0 -92 -9z"/>
<path d="M6088 1133 c-5 -118 -9 -113 86 -113 89 0 130 17 162 65 17 26 17 29
-1 62 -25 46 -69 63 -165 63 l-78 0 -4 -77z"/>
<path d="M8720 1396 c-19 -7 -57 -27 -84 -44 -28 -18 -58 -32 -69 -32 -10 0
-39 16 -64 35 -58 44 -95 46 -151 5 -23 -16 -48 -30 -56 -30 -7 0 -42 15 -76
33 l-63 32 -173 0 -173 0 -37 -35 c-20 -19 -49 -53 -65 -74 l-29 -39 0 -248
c0 -136 4 -259 10 -273 14 -38 90 -117 127 -132 40 -17 68 -8 132 46 26 22 53
40 60 40 7 0 40 -20 73 -45 33 -25 67 -45 76 -46 36 -3 65 3 107 22 l45 20 53
-25 c63 -30 84 -27 150 25 55 43 53 43 151 -14 50 -30 82 -42 123 -45 79 -7
169 21 228 69 55 46 70 48 116 14 111 -80 202 -101 313 -71 116 32 230 152
263 279 28 108 12 251 -39 351 -29 57 -105 134 -163 164 -44 24 -60 27 -145
26 -81 -1 -102 -5 -146 -27 -27 -14 -56 -32 -62 -40 -7 -8 -26 -20 -42 -27
-28 -12 -34 -9 -97 33 -38 25 -86 50 -108 56 -53 14 -142 13 -185 -3z m191
-110 c49 -21 80 -53 113 -118 33 -66 28 -83 -30 -94 -42 -8 -64 8 -64 45 0 32
-51 88 -88 98 -28 7 -78 -18 -102 -51 -60 -83 -59 -270 2 -347 21 -26 78 -51
103 -45 35 9 85 61 85 89 0 27 16 37 60 37 68 0 74 -20 31 -95 -36 -62 -64
-87 -121 -108 -115 -42 -226 5 -279 118 -53 111 -52 245 1 360 27 58 39 71 93
99 56 30 141 35 196 12z m559 -9 c109 -58 168 -237 128 -395 -50 -202 -284
-270 -412 -121 -65 76 -78 118 -73 239 2 58 10 123 18 144 17 47 85 120 131
140 54 23 157 20 208 -7z m-1337 7 c23 -4 52 -20 75 -41 l37 -34 0 -88 c0 -81
-2 -91 -25 -114 -14 -13 -34 -26 -45 -28 -25 -5 -32 -51 -11 -69 9 -7 16 -18
16 -25 0 -8 7 -28 16 -47 9 -18 25 -49 34 -68 9 -19 20 -47 24 -62 6 -28 6
-28 -46 -28 -56 0 -88 19 -88 53 0 10 -6 33 -14 50 -8 18 -16 41 -19 52 -3 11
-12 38 -20 60 l-15 40 -77 3 -77 3 3 -128 4 -128 -55 0 -55 0 -3 290 c-1 159
0 295 3 302 3 10 42 13 152 13 81 0 165 -3 186 -6z m348 -6 c2 -7 3 -145 1
-305 l-3 -293 -50 0 c-33 0 -51 5 -55 14 -10 27 -9 586 1 590 24 10 103 5 106
-6z m399 -263 c6 -8 10 -22 8 -32 -5 -25 -51 -25 -56 0 -8 42 23 63 48 32z"/>
<path d="M9311 1203 c-18 -9 -45 -34 -59 -56 -24 -36 -26 -47 -26 -150 1 -95
4 -118 22 -151 26 -47 66 -76 108 -76 38 0 114 52 114 78 0 10 5 23 11 29 7 7
14 46 17 87 7 108 -19 188 -72 227 -45 33 -67 35 -115 12z"/>
<path d="M7904 1197 c-3 -8 -4 -49 -2 -93 l3 -79 65 -3 c114 -6 179 28 179 93
0 35 -22 65 -62 83 -39 17 -176 16 -183 -1z"/>
<path d="M10044 1392 c-105 -37 -195 -141 -234 -272 -25 -83 -25 -134 -1 -230
27 -107 55 -157 127 -226 51 -50 74 -64 122 -78 72 -20 124 -20 181 0 65 22
78 31 148 96 l64 59 72 -77 c71 -75 74 -77 121 -78 48 -1 50 0 116 72 37 39
70 72 74 72 5 0 34 -24 66 -54 133 -122 237 -136 407 -55 l62 30 51 -35 c30
-21 69 -38 97 -42 75 -11 245 1 283 21 22 11 43 15 64 10 86 -18 116 -17 152
4 44 26 78 27 120 1 43 -27 74 -19 130 36 24 24 53 44 63 44 11 0 41 -18 66
-40 98 -85 149 -92 220 -30 54 47 77 49 129 14 52 -35 132 -64 178 -64 20 0
67 7 105 16 37 8 82 13 100 9 28 -5 38 0 79 37 69 63 84 103 84 224 0 90 -3
106 -26 150 -25 46 -26 52 -15 107 11 51 10 62 -8 103 -31 69 -129 160 -193
179 -105 31 -208 14 -304 -49 -30 -20 -59 -36 -65 -36 -6 0 -31 17 -56 37 -62
51 -95 50 -159 -5 -28 -23 -57 -42 -66 -42 -9 0 -38 18 -64 40 -45 37 -96 60
-134 60 -8 0 -41 -14 -72 -30 l-58 -30 -50 25 c-77 39 -102 35 -165 -30 -33
-33 -58 -70 -64 -92 -6 -21 -11 -97 -11 -169 0 -156 -7 -173 -62 -155 -42 14
-48 35 -48 173 0 142 -12 177 -80 242 -70 67 -96 71 -167 26 -49 -31 -77 -37
-88 -20 -4 6 -30 22 -58 37 -87 44 -180 43 -310 -3 -45 -16 -50 -15 -92 1 -57
21 -89 14 -156 -36 -29 -21 -58 -39 -65 -39 -6 0 -34 18 -60 40 -68 56 -107
66 -164 44 -58 -22 -93 -21 -160 4 -68 26 -157 28 -226 4z m198 -106 c47 -20
83 -59 114 -124 l26 -56 -22 -18 c-35 -29 -77 -24 -95 12 -8 16 -15 36 -15 43
0 21 -67 77 -92 77 -30 0 -80 -34 -100 -67 -31 -53 -42 -145 -28 -228 11 -62
19 -81 46 -109 46 -48 82 -54 132 -22 27 17 42 35 47 55 9 41 27 53 77 49 53
-4 59 -21 28 -80 -77 -149 -263 -183 -368 -69 -62 67 -75 111 -75 251 -1 123
0 126 31 176 37 59 77 97 118 112 42 15 136 14 176 -2z m1004 -12 c43 -22 56
-35 82 -87 18 -34 32 -69 32 -78 0 -16 -39 -39 -67 -39 -25 0 -53 30 -53 56 0
31 -66 94 -98 94 -14 0 -43 -15 -66 -34 -37 -30 -43 -42 -60 -113 -19 -79 -19
-82 0 -158 17 -66 25 -83 54 -106 54 -43 79 -45 128 -9 29 21 42 37 42 54 0
34 22 48 72 44 53 -4 58 -20 28 -83 -28 -59 -67 -94 -127 -117 -87 -33 -165
-17 -231 45 -41 40 -65 92 -82 181 -28 150 37 314 144 361 54 23 144 19 202
-11z m1785 15 c48 -16 139 -113 139 -149 0 -31 -15 -40 -63 -40 -27 0 -35 6
-50 40 -22 47 -60 70 -114 70 -147 0 -195 -292 -68 -408 33 -30 42 -34 77 -29
23 3 56 18 77 35 30 24 36 35 36 68 l0 39 -56 -3 c-64 -4 -74 6 -63 63 l6 33
110 -4 c61 -2 113 -5 115 -8 2 -2 5 -73 6 -158 l2 -153 -26 -3 c-24 -3 -29 3
-44 42 -10 25 -21 46 -25 46 -4 0 -15 -11 -24 -25 -22 -34 -87 -65 -134 -65
-48 0 -120 30 -155 66 -64 64 -98 202 -77 318 19 105 84 199 155 224 41 14
134 15 176 1z m-2497 -21 c8 -13 37 -66 64 -118 27 -52 54 -96 59 -97 9 -3 50
71 77 137 3 8 17 33 30 55 23 38 27 40 72 40 52 0 68 -18 42 -47 -23 -24 -54
-72 -77 -118 -12 -25 -31 -58 -42 -75 -10 -16 -23 -40 -28 -52 -5 -11 -15 -24
-21 -28 -8 -5 -11 -47 -10 -129 1 -66 1 -129 1 -139 -1 -16 -9 -18 -58 -15
l-58 3 -1 143 c-2 140 -3 144 -30 185 -16 23 -32 49 -37 57 -4 8 -16 29 -27
45 -10 17 -26 44 -35 60 -8 17 -26 43 -40 59 -41 47 -33 56 46 56 50 0 61 -3
73 -22z m1017 10 c2 -7 2 -114 -1 -238 -3 -137 -2 -230 4 -238 8 -10 38 -13
130 -10 l121 3 0 -54 0 -55 -177 0 c-98 -1 -178 1 -178 4 -1 8 -1 584 -1 593
1 13 99 8 102 -5z m450 -286 c0 -161 -3 -297 -6 -302 -9 -15 -95 -13 -95 3 -1
83 -1 584 -1 590 1 4 24 7 52 5 l51 -3 -1 -293z m285 253 c13 -22 28 -49 34
-60 12 -24 59 -107 88 -155 30 -50 62 -117 62 -130 0 -6 8 -10 18 -8 19 4 18
-12 12 243 l-4 150 50 0 c44 0 49 -2 48 -22 0 -13 -1 -149 -2 -303 l-2 -280
-50 0 c-47 0 -51 2 -73 38 -13 20 -27 47 -31 60 -4 12 -12 22 -17 22 -5 0 -9
5 -9 10 0 6 -12 29 -27 53 -35 55 -76 129 -109 195 -14 28 -34 57 -45 62 -19
11 -19 8 -12 -117 5 -70 8 -171 8 -223 l0 -95 -42 -3 c-36 -3 -43 0 -43 15 -1
13 0 523 0 586 0 4 27 7 61 5 60 -3 62 -4 85 -43z m-1091 -250 c0 -23 -5 -31
-22 -33 -14 -2 -23 3 -25 15 -7 33 3 54 26 51 16 -2 21 -10 21 -33z m-979 10
c8 -19 -13 -45 -36 -45 -20 0 -32 23 -24 45 8 20 53 19 60 0z"/>
</g>
</svg>
